<?xml version="1.0" encoding="UTF-8" standalone="no"?>
<!DOCTYPE svg PUBLIC "-//W3C//DTD SVG 1.1//EN" "http://www.w3.org/Graphics/SVG/1.1/DTD/svg11.dtd">
<svg width="100%" height="100%" viewBox="0 0 181 203" version="1.1" xmlns="http://www.w3.org/2000/svg" xmlns:xlink="http://www.w3.org/1999/xlink" xml:space="preserve" xmlns:serif="http://www.serif.com/" style="fill-rule:evenodd;clip-rule:evenodd;stroke-linecap:round;stroke-linejoin:round;">
    <g id="SuperWoman" transform="matrix(1,0,0,1,-104.212,-55.5675)">
        <rect x="104.212" y="55.567" width="180.665" height="202.066" style="fill:none;"/>
        <g transform="matrix(1,0,0,1,0.211795,0.567454)">
            <path d="M132.457,210.946C134.944,211.231 137.533,211.16 139.867,212.083C146.86,214.864 147.754,224.537 153.062,229.907C163.669,240.676 179.868,242.959 193.611,237.255C200.462,234.413 204.462,229.917 208.836,224.162C213.444,218.072 213.475,211.048 213.292,203.557C213.15,197.467 212.947,191.377 211.11,185.602C209.273,179.826 205.527,174.437 200.026,171.899C193.936,169.139 186.922,170.275 180.406,171.625C170.094,173.767 159.68,176.386 150.656,181.836C144.678,185.45 139.491,190.24 133.401,193.702C130.375,195.493 127.066,196.759 123.617,197.447C120.105,198.086 116.725,196.98 113.467,197.295C115.71,204.765 125.109,210.084 132.457,210.946Z" style="fill:rgb(245,97,50);fill-rule:nonzero;"/>
        </g>
        <g transform="matrix(1,0,0,1,0.211795,0.567454)">
            <path d="M178.437,241.234C168.675,241.318 159.281,237.463 152.392,230.546C150.139,228.262 148.667,225.268 147.246,222.375C145.216,218.315 143.359,214.448 139.532,212.926C137.893,212.381 136.183,212.08 134.457,212.032C133.767,212.032 133.077,211.931 132.427,211.85C124.571,210.926 115.02,205.333 112.635,197.559C112.608,197.472 112.594,197.381 112.594,197.29C112.594,196.823 112.952,196.428 113.416,196.381C114.943,196.284 116.476,196.335 117.994,196.533C119.812,196.787 121.657,196.787 123.475,196.533C126.822,195.856 130.033,194.625 132.975,192.89C136.123,191.007 139.156,188.939 142.059,186.698C144.678,184.759 147.378,182.76 150.23,181.034C159.72,175.289 170.713,172.701 180.264,170.712C187.024,169.311 194.159,168.174 200.442,171.047C205.659,173.432 209.882,178.629 212.013,185.257C213.952,191.347 214.104,197.772 214.246,203.466C214.439,211.728 214.246,218.539 209.598,224.639C205.538,229.957 201.346,234.982 194.017,238.027C189.088,240.119 183.792,241.209 178.437,241.234ZM114.695,198.147C117.405,204.542 125.86,209.251 132.549,210.033C133.209,210.114 133.879,210.165 134.579,210.216C136.504,210.263 138.411,210.605 140.232,211.231C144.709,213.007 146.85,217.321 148.921,221.563C150.271,224.324 151.682,227.176 153.722,229.257C163.74,239.407 179.259,242.229 193.307,236.362C200.229,233.49 204.116,228.871 208.136,223.563C212.399,217.919 212.602,211.434 212.409,203.527C212.277,197.954 212.125,191.641 210.267,185.835C208.237,179.644 204.421,174.843 199.671,172.64C193.885,169.991 187.095,171.087 180.619,172.427C171.22,174.376 160.411,176.934 151.184,182.577C148.413,184.252 145.744,186.231 143.156,188.139C140.197,190.429 137.103,192.538 133.889,194.453C130.769,196.292 127.361,197.592 123.81,198.299C121.827,198.584 119.814,198.584 117.831,198.299C116.725,198.249 115.71,198.147 114.695,198.147Z" style="fill:rgb(9,63,104);fill-rule:nonzero;"/>
        </g>
        <g transform="matrix(1,0,0,1,0.211795,0.567454)">
            <path d="M180.609,64.746C174.184,61.701 166.125,63.406 160.675,67.973C155.109,72.596 152.32,79.788 153.316,86.954C154.473,93.968 160.096,100.149 167.079,101.489C174.062,102.829 181.827,98.779 184.334,92.12C187.775,82.752 192.85,70.531 180.609,64.746Z" style="fill:rgb(238,222,12);fill-rule:nonzero;"/>
        </g>
        <g transform="matrix(1,0,0,1,0.211795,0.567454)">
            <path d="M169.738,102.747C168.781,102.751 167.826,102.662 166.886,102.483C159.69,101.123 153.559,94.658 152.311,87.127C151.257,79.602 154.18,72.047 160.025,67.192C166.115,62.117 174.55,60.747 181.046,63.822C193.733,69.831 189.023,82.407 185.583,91.603L185.258,92.476C182.994,98.555 176.407,102.747 169.738,102.747ZM173.514,64.177C169.063,64.249 164.774,65.868 161.385,68.755C156.059,73.126 153.366,79.962 154.28,86.792C155.396,93.521 160.847,99.276 167.231,100.494C173.849,101.743 181.066,97.825 183.329,91.765L183.654,90.882C187.166,81.503 191.145,70.866 180.152,65.659C178.088,64.703 175.84,64.211 173.565,64.218L173.514,64.177Z" style="fill:rgb(9,63,104);fill-rule:nonzero;"/>
        </g>
        <g transform="matrix(1,0,0,1,0.211795,0.567454)">
            <path d="M182.01,77.525C177.22,81.353 173.684,86.53 171.86,92.384C170.939,94.869 170.735,97.564 171.271,100.159C171.485,101.263 172.128,102.238 173.057,102.869C174.854,103.884 177.117,102.605 178.569,101.164C183.502,96.373 188.384,89.776 190.394,83.148C190.993,81.118 191.693,78.073 189.846,76.51C187.998,74.946 185.034,75.424 183.157,76.723C182.7,76.977 182.365,77.24 182.01,77.525Z" style="fill:rgb(9,63,104);fill-rule:nonzero;"/>
        </g>
        <g transform="matrix(1,0,0,1,0.211795,0.567454)">
            <path d="M174.428,104.28C173.756,104.28 173.096,104.109 172.509,103.783C171.331,103.024 170.51,101.818 170.236,100.443C169.639,97.665 169.847,94.774 170.835,92.11C172.747,86.053 176.423,80.701 181.391,76.743C181.766,76.459 182.142,76.185 182.527,75.921C184.75,74.378 188.069,73.739 190.455,75.769C192.84,77.799 192.028,81.097 191.307,83.473C189.49,89.563 185.085,96.231 179.219,101.925C177.982,103.294 176.267,104.137 174.428,104.28ZM182.629,78.357C177.985,82.053 174.552,87.056 172.773,92.719C171.904,95.019 171.707,97.518 172.205,99.926C172.356,100.762 172.821,101.511 173.504,102.017C174.763,102.727 176.549,101.682 177.808,100.464C183.431,95.013 187.643,88.598 189.369,82.884C190.241,80.011 190.16,78.195 189.135,77.311C187.582,75.992 185.217,76.53 183.674,77.586L182.659,78.357L182.629,78.357Z" style="fill:rgb(9,63,104);fill-rule:nonzero;"/>
        </g>
        <g transform="matrix(1,0,0,1,0.211795,0.567454)">
            <path d="M265.991,197.254C259.515,177.147 225.269,166.327 223.818,166.327L192.941,166.327C191.49,166.327 157.244,177.147 150.768,197.254C147.023,208.876 162.248,220.213 171.657,225.948L180.193,211.921C174.621,208.531 168.652,203.557 166.907,200.949C169.495,195.194 176.448,190.21 182.873,186.739L182.873,225.065L233.876,225.065L233.876,186.718C240.311,190.21 247.264,195.183 249.852,200.928C246.463,205.425 242.28,209.264 237.51,212.256L247.021,224.73C256.45,218.975 269.726,208.876 265.991,197.254Z" style="fill:rgb(104,225,253);fill-rule:nonzero;"/>
        </g>
        <g transform="matrix(1,0,0,1,0.211795,0.567454)">
            <path d="M171.657,226.963C171.47,226.962 171.288,226.909 171.129,226.811C161.466,220.924 145.845,209.221 149.814,196.939C156.452,176.325 191.256,165.312 192.951,165.312L223.828,165.312C225.523,165.312 260.368,176.325 266.965,196.939C269.929,206.166 263.23,216.072 247.579,225.593C247.14,225.86 246.564,225.755 246.249,225.349L236.718,212.885C236.585,212.709 236.512,212.493 236.512,212.272C236.512,211.917 236.699,211.587 237.003,211.403C241.471,208.581 245.419,205.01 248.675,200.847C246.127,195.772 240.078,191.428 234.881,188.444L234.881,224.984C234.881,225.541 234.423,225.999 233.866,225.999L182.873,225.999C182.316,225.999 181.858,225.541 181.858,224.984L181.858,188.444C176.671,191.428 170.632,195.762 168.084,200.847C170.114,203.476 175.696,208.003 180.721,211.058C181.192,211.349 181.343,211.975 181.056,212.449L172.55,226.476C172.367,226.777 172.04,226.962 171.687,226.963L171.657,226.963ZM223.767,167.342L192.941,167.342C190.759,167.586 157.904,178.405 151.732,197.559C148.312,208.186 162.136,218.823 171.322,224.547L178.802,212.256C173.433,208.855 167.84,204.136 166.064,201.517C165.857,201.218 165.826,200.83 165.983,200.502C168.815,194.168 176.468,189.002 182.395,185.785C182.542,185.706 182.706,185.665 182.873,185.665C183.428,185.665 183.886,186.122 183.888,186.678L183.888,224.05L232.861,224.05L232.861,186.718C232.861,186.36 233.051,186.028 233.359,185.845C233.672,185.664 234.06,185.664 234.374,185.845C240.291,189.063 247.944,194.229 250.786,200.553C250.943,200.881 250.912,201.269 250.705,201.568C247.464,205.875 243.509,209.597 239.012,212.57L247.305,223.431C257.384,217.168 268.295,207.739 265.037,197.609C258.825,178.375 226,167.586 223.767,167.342Z" style="fill:rgb(9,63,104);fill-rule:nonzero;"/>
        </g>
        <g id="React" transform="matrix(0.060947,0,0,0.060947,183.207,188.125)">
            <path d="M666.3,296.5C666.3,264 625.6,233.2 563.2,214.1C577.6,150.5 571.2,99.9 543,83.7C536.5,79.9 528.9,78.1 520.6,78.1L520.6,100.4C525.2,100.4 528.9,101.3 532,103C545.6,110.8 551.5,140.5 546.9,178.7C545.8,188.1 544,198 541.8,208.1C522.2,203.3 500.8,199.6 478.3,197.2C464.8,178.7 450.8,161.9 436.7,147.2C469.3,116.9 499.9,100.3 520.7,100.3L520.7,78C493.2,78 457.2,97.6 420.8,131.6C384.4,97.8 348.4,78.4 320.9,78.4L320.9,100.7C341.6,100.7 372.3,117.2 404.9,147.3C390.9,162 376.9,178.7 363.6,197.2C341,199.6 319.6,203.3 300,208.2C297.7,198.2 296,188.5 294.8,179.2C290.1,141 295.9,111.3 309.4,103.4C312.4,101.6 316.3,100.8 320.9,100.8L320.9,78.5C312.5,78.5 304.9,80.3 298.3,84.1C270.2,100.3 263.9,150.8 278.4,214.2C216.2,233.4 175.7,264.1 175.7,296.5C175.7,329 216.4,359.8 278.8,378.9C264.4,442.5 270.8,493.1 299,509.3C305.5,513.1 313.1,514.9 321.5,514.9C349,514.9 385,495.3 421.4,461.3C457.8,495.1 493.8,514.5 521.3,514.5C529.7,514.5 537.3,512.7 543.9,508.9C572,492.7 578.3,442.2 563.8,378.8C625.8,359.7 666.3,328.9 666.3,296.5ZM536.1,229.8C532.4,242.7 527.8,256 522.6,269.3C518.5,261.3 514.2,253.3 509.5,245.3C504.9,237.3 500,229.5 495.1,221.9C509.3,224 523,226.6 536.1,229.8ZM490.3,336.3C482.5,349.8 474.5,362.6 466.2,374.5C451.3,375.8 436.2,376.5 421,376.5C405.9,376.5 390.8,375.8 376,374.6C367.7,362.7 359.6,350 351.8,336.6C344.2,323.5 337.3,310.2 331,296.8C337.2,283.4 344.2,270 351.7,256.9C359.5,243.4 367.5,230.6 375.8,218.7C390.7,217.4 405.8,216.7 421,216.7C436.1,216.7 451.2,217.4 466,218.6C474.3,230.5 482.4,243.2 490.2,256.6C497.8,269.7 504.7,283 511,296.4C504.7,309.8 497.8,323.2 490.3,336.3ZM522.6,323.3C528,336.7 532.6,350.1 536.4,363.1C523.3,366.3 509.5,369 495.2,371.1C500.1,363.4 505,355.5 509.6,347.4C514.2,339.4 518.5,331.3 522.6,323.3ZM421.2,430C411.9,420.4 402.6,409.7 393.4,398C402.4,398.4 411.6,398.7 420.9,398.7C430.3,398.7 439.6,398.5 448.7,398C439.7,409.7 430.4,420.4 421.2,430ZM346.8,371.1C332.6,369 318.9,366.4 305.8,363.2C309.5,350.3 314.1,337 319.3,323.7C323.4,331.7 327.7,339.7 332.4,347.7C337.1,355.7 341.9,363.5 346.8,371.1ZM420.7,163C430,172.6 439.3,183.3 448.5,195C439.5,194.6 430.3,194.3 421,194.3C411.6,194.3 402.3,194.5 393.2,195C402.2,183.3 411.5,172.6 420.7,163ZM346.7,221.9C341.8,229.6 336.9,237.5 332.3,245.6C327.7,253.6 323.4,261.6 319.3,269.6C313.9,256.2 309.3,242.8 305.5,229.8C318.6,226.7 332.4,224 346.7,221.9ZM256.2,347.1C220.8,332 197.9,312.2 197.9,296.5C197.9,280.8 220.8,260.9 256.2,245.9C264.8,242.2 274.2,238.9 283.9,235.8C289.6,255.4 297.1,275.8 306.4,296.7C297.2,317.5 289.8,337.8 284.2,357.3C274.3,354.2 264.9,350.8 256.2,347.1ZM310,490C296.4,482.2 290.5,452.5 295.1,414.3C296.2,404.9 298,395 300.2,384.9C319.8,389.7 341.2,393.4 363.7,395.8C377.2,414.3 391.2,431.1 405.3,445.8C372.7,476.1 342.1,492.7 321.3,492.7C316.8,492.6 313,491.7 310,490ZM547.2,413.8C551.9,452 546.1,481.7 532.6,489.6C529.6,491.4 525.7,492.2 521.1,492.2C500.4,492.2 469.7,475.7 437.1,445.6C451.1,430.9 465.1,414.2 478.4,395.7C501,393.3 522.4,389.6 542,384.7C544.3,394.8 546.1,404.5 547.2,413.8ZM585.7,347.1C577.1,350.8 567.7,354.1 558,357.2C552.3,337.6 544.8,317.2 535.5,296.3C544.7,275.5 552.1,255.2 557.7,235.7C567.6,238.8 577,242.2 585.8,245.9C621.2,261 644.1,280.8 644.1,296.5C644,312.2 621.1,332.1 585.7,347.1Z" style="fill:white;fill-rule:nonzero;"/>
            <circle cx="420.9" cy="296.5" r="45.7" style="fill:white;"/>
        </g>
        <g transform="matrix(1,0,0,1,0.211795,0.567454)">
            <path d="M232.679,170.874C232.679,177.614 208.379,185.977 208.379,185.977C208.379,185.977 184.02,177.614 184.02,170.874C184.02,164.135 194.9,161.567 208.379,161.567C221.859,161.567 232.679,164.165 232.679,170.874Z" style="fill:rgb(245,97,50);fill-rule:nonzero;"/>
        </g>
        <g transform="matrix(1,0,0,1,0.211795,0.567454)">
            <path d="M208.379,186.891C208.282,186.911 208.182,186.911 208.085,186.891C205.527,186.018 183.167,178.111 183.167,170.925C183.167,164.338 192.119,160.704 208.379,160.704C224.64,160.704 233.592,164.338 233.592,170.925C233.592,178.111 211.262,186.018 208.674,186.891C208.577,186.911 208.477,186.911 208.379,186.891ZM208.379,162.531C193.51,162.531 184.984,165.576 184.984,170.925C184.984,175.32 199.194,181.877 208.379,185.064C217.515,181.877 231.724,175.32 231.724,170.925C231.775,165.535 223.3,162.48 208.379,162.48L208.379,162.531Z" style="fill:rgb(9,63,104);fill-rule:nonzero;"/>
        </g>
        <g transform="matrix(1,0,0,1,0.211795,0.567454)">
            <path d="M203.294,167.758C203.294,167.758 203.01,180.405 208.369,186.028C208.369,186.028 214.003,180.232 214.003,167.109L203.294,167.758Z" style="fill:rgb(9,63,104);fill-rule:nonzero;"/>
        </g>
        <g transform="matrix(1,0,0,1,0.211795,0.567454)">
            <path d="M208.379,186.992C208.105,186.994 207.841,186.884 207.649,186.688C202.056,180.872 202.269,168.276 202.279,167.738C202.278,167.203 202.7,166.755 203.233,166.723L213.952,166.033C213.972,166.031 213.992,166.031 214.013,166.031C214.57,166.031 215.028,166.489 215.028,167.046C215.028,167.046 215.028,167.047 215.028,167.048C215.028,180.425 209.344,186.424 209.11,186.678C208.92,186.878 208.656,186.991 208.38,186.992ZM204.32,168.722C204.32,171.493 204.847,179.776 208.379,184.394C209.78,182.435 212.785,177.187 213.018,168.154L204.32,168.722Z" style="fill:rgb(9,63,104);fill-rule:nonzero;"/>
        </g>
        <g transform="matrix(1,0,0,1,0.211795,0.567454)">
            <ellipse cx="208.654" cy="112.562" rx="37.545" ry="40.762" style="fill:rgb(238,222,12);"/>
        </g>
        <g transform="matrix(1,0,0,1,0.211795,0.567454)">
            <path d="M208.654,154.34C187.389,154.34 170.084,135.603 170.084,112.562C170.084,89.522 187.339,70.775 208.654,70.775C229.969,70.775 247.224,89.522 247.224,112.562C247.224,135.603 229.918,154.34 208.654,154.34ZM208.654,72.805C188.516,72.805 172.114,90.638 172.114,112.562C172.114,134.486 188.506,152.31 208.654,152.31C228.801,152.31 245.194,134.476 245.194,112.562C245.194,90.649 228.801,72.815 208.654,72.815L208.654,72.805Z" style="fill:rgb(9,63,104);fill-rule:nonzero;"/>
        </g>
        <g transform="matrix(1,0,0,1,0.211795,0.567454)">
            <path d="M203.294,160.156L214.013,160.156L214.013,166.327C214.013,168.821 211.96,170.874 209.466,170.874L207.852,170.874C205.357,170.874 203.305,168.821 203.305,166.327L203.305,160.156L203.294,160.156Z" style="fill:rgb(255,201,176);fill-rule:nonzero;"/>
        </g>
        <g transform="matrix(1,0,0,1,0.211795,0.567454)">
            <path d="M209.466,171.889L207.842,171.889C204.792,171.884 202.285,169.376 202.279,166.327L202.279,160.156C202.279,159.599 202.738,159.141 203.294,159.141L214.013,159.141C214.57,159.141 215.028,159.599 215.028,160.156L215.028,166.327C215.022,169.376 212.515,171.884 209.466,171.889ZM204.309,161.171L204.309,166.327C204.309,168.265 205.904,169.859 207.842,169.859L209.466,169.859C211.403,169.859 212.998,168.265 212.998,166.327L212.998,161.171L204.309,161.171Z" style="fill:rgb(9,63,104);fill-rule:nonzero;"/>
        </g>
        <g transform="matrix(1,0,0,1,0.211795,0.567454)">
            <ellipse cx="178.021" cy="132.314" rx="10.414" ry="8.973" style="fill:rgb(255,201,176);"/>
        </g>
        <g transform="matrix(1,0,0,1,0.211795,0.567454)">
            <path d="M178.031,142.302C171.728,142.302 166.602,137.826 166.602,132.314C166.602,126.803 171.728,122.327 178.031,122.327C184.334,122.327 189.45,126.813 189.45,132.314C189.45,137.816 184.324,142.302 178.031,142.302ZM178.031,124.357C172.844,124.357 168.632,127.93 168.632,132.314C168.632,136.699 172.844,140.272 178.031,140.272C183.218,140.272 187.42,136.709 187.42,132.314C187.42,127.919 183.207,124.357 178.031,124.357Z" style="fill:rgb(9,63,104);fill-rule:nonzero;"/>
        </g>
        <g transform="matrix(1,0,0,1,0.211795,0.567454)">
            <ellipse cx="238.728" cy="132.314" rx="10.414" ry="8.973" style="fill:rgb(255,201,176);"/>
        </g>
        <g transform="matrix(1,0,0,1,0.211795,0.567454)">
            <path d="M238.728,142.302C232.425,142.302 227.299,137.826 227.299,132.314C227.299,126.803 232.425,122.327 238.728,122.327C245.031,122.327 250.157,126.813 250.157,132.314C250.157,137.816 245.031,142.302 238.728,142.302ZM238.728,124.357C233.551,124.357 229.329,127.93 229.329,132.314C229.329,136.699 233.551,140.272 238.728,140.272C243.904,140.272 248.127,136.709 248.127,132.314C248.127,127.919 243.915,124.357 238.728,124.357Z" style="fill:rgb(9,63,104);fill-rule:nonzero;"/>
        </g>
        <g transform="matrix(1,0,0,1,0.211795,0.567454)">
            <path d="M228.943,103.955C225.025,101.494 220.922,99.339 216.672,97.51C218.078,100.86 219.776,104.08 221.747,107.132C215.792,105.026 210.447,101.483 206.187,96.82C205.862,96.475 202.127,92.577 202.127,92.516C200.604,97.081 198.165,101.288 194.961,104.879C192.321,107.462 189.443,109.79 186.364,111.832C184.423,113.343 182.157,114.386 179.746,114.877C177.615,115.252 177.554,116.003 177.29,118.165C176.813,122.134 177.29,126.143 177.29,130.132C177.29,147.36 191.466,161.536 208.694,161.536C225.922,161.536 240.098,147.36 240.098,130.132C240.098,126.072 240.697,121.606 240.271,117.637C239.763,112.897 234.506,108.015 230.973,105.346C230.283,104.879 229.613,104.412 228.943,103.955Z" style="fill:rgb(255,201,176);fill-rule:nonzero;"/>
        </g>
        <g transform="matrix(1,0,0,1,0.211795,0.567454)">
            <path d="M208.654,162.582C190.882,162.548 176.268,147.934 176.234,130.163C176.234,128.894 176.234,127.595 176.143,126.336C175.978,123.582 176.025,120.82 176.285,118.074C176.559,115.831 176.732,114.41 179.574,113.912C181.84,113.435 183.966,112.442 185.786,111.009C188.812,109.003 191.64,106.712 194.23,104.168C197.347,100.687 199.711,96.599 201.173,92.161C201.367,91.642 201.952,91.372 202.472,91.562C202.677,91.631 202.852,91.767 202.97,91.948C203.274,92.303 205.06,94.16 205.933,95.074L206.948,96.089C208.329,97.592 209.83,98.98 211.435,100.24C213.851,102.145 216.493,103.744 219.301,105.001C217.962,102.709 216.769,100.336 215.728,97.896C215.673,97.768 215.644,97.63 215.644,97.491C215.644,96.934 216.102,96.476 216.659,96.476C216.811,96.476 216.961,96.51 217.098,96.576C221.396,98.426 225.543,100.608 229.502,103.103C230.212,103.58 230.902,104.118 231.532,104.554C234.252,106.584 240.667,111.994 241.225,117.546C241.44,120.248 241.44,122.964 241.225,125.666C241.144,127.239 241.062,128.711 241.062,130.193C241.013,147.95 226.41,162.543 208.654,162.582ZM202.492,94.404C200.96,98.526 198.651,102.316 195.692,105.569C193.009,108.207 190.083,110.586 186.953,112.674C184.886,114.278 182.48,115.389 179.919,115.922C178.569,116.156 178.559,116.196 178.315,118.236C178.061,120.908 178.013,123.596 178.173,126.275C178.173,127.554 178.264,128.863 178.264,130.173C178.264,146.844 191.983,160.562 208.654,160.562C225.325,160.562 239.043,146.844 239.043,130.173C239.043,128.66 239.124,127.128 239.205,125.544C239.398,122.963 239.398,120.371 239.205,117.79C238.677,112.877 232.252,107.64 230.303,106.188C229.684,105.731 229.035,105.265 228.355,104.818C225.266,102.833 222.032,101.082 218.682,99.581C219.83,102.003 221.139,104.346 222.6,106.594C222.832,106.959 222.808,107.433 222.539,107.772C222.269,108.111 221.81,108.242 221.402,108.096C215.297,105.926 209.815,102.295 205.436,97.52L204.421,96.505L202.492,94.404Z" style="fill:rgb(9,63,104);fill-rule:nonzero;"/>
        </g>
        <g transform="matrix(1,0,0,1,0.211795,0.567454)">
            <circle cx="194.119" cy="125.585" r="2.903" style="fill:rgb(9,63,104);"/>
        </g>
        <g transform="matrix(1,0,0,1,0.211795,0.567454)">
            <circle cx="224.112" cy="125.585" r="2.903" style="fill:rgb(9,63,104);"/>
        </g>
        <g transform="matrix(1,0,0,1,0.211795,0.567454)">
            <path d="M208.369,142.312C207.414,142.307 206.461,142.228 205.517,142.079C205.024,141.995 204.66,141.564 204.66,141.064C204.66,140.499 205.125,140.034 205.69,140.034C205.748,140.034 205.805,140.039 205.862,140.049C207.248,140.284 208.662,140.305 210.054,140.11C210.166,139.196 209.039,136.181 207.618,133.38C207.549,133.24 207.513,133.086 207.513,132.929C207.513,132.372 207.971,131.914 208.528,131.914C208.896,131.914 209.236,132.114 209.415,132.436C210.43,134.405 212.734,139.186 211.881,141.084C211.673,141.558 211.257,141.91 210.755,142.038C209.973,142.221 209.172,142.313 208.369,142.312Z" style="fill:rgb(9,63,104);fill-rule:nonzero;"/>
        </g>
        <g transform="matrix(1,0,0,1,0.211795,0.567454)">
            <path d="M200.056,117.252L186.192,117.252C185.305,117.246 184.578,116.515 184.578,115.628C184.583,114.746 185.31,114.024 186.192,114.024L200.056,114.024C200.942,114.024 201.67,114.753 201.67,115.638C201.67,116.523 200.942,117.252 200.056,117.252Z" style="fill:rgb(9,63,104);fill-rule:nonzero;"/>
        </g>
        <g transform="matrix(1,0,0,1,0.211795,0.567454)">
            <path d="M219.829,117.587C219.815,117.587 219.802,117.587 219.788,117.587C218.902,117.587 218.174,116.858 218.174,115.973C218.174,115.103 218.877,114.381 219.747,114.359L233.592,113.648C233.619,113.647 233.646,113.646 233.673,113.646C234.56,113.646 235.289,114.376 235.289,115.262C235.289,116.118 234.609,116.833 233.754,116.876L219.91,117.587L219.829,117.587Z" style="fill:rgb(9,63,104);fill-rule:nonzero;"/>
        </g>
        <g transform="matrix(1,0,0,1,0.211795,0.567454)">
            <path d="M209.597,152.584C204.052,152.564 198.838,149.895 195.58,145.408C195.456,145.235 195.389,145.027 195.389,144.815C195.389,144.258 195.847,143.8 196.404,143.8C196.768,143.8 197.105,143.995 197.286,144.312C197.539,144.707 203.69,153.934 216.469,149.234C216.558,149.21 216.649,149.197 216.741,149.197C217.298,149.197 217.756,149.655 217.756,150.212C217.756,150.606 217.527,150.966 217.169,151.132C214.752,152.063 212.188,152.555 209.598,152.584Z" style="fill:rgb(9,63,104);fill-rule:nonzero;"/>
        </g>
        <g transform="matrix(1,0,0,1,0.211795,0.567454)">
            <path d="M178.721,214.336L182.873,218.396C182.873,218.396 183.563,231.805 182.385,232.606C181.208,233.408 171.961,236.413 171.961,234.505C171.961,232.596 177.036,230.79 177.036,230.79C177.036,230.79 172.652,228.546 172.398,224.7L178.721,214.336Z" style="fill:rgb(255,201,176);fill-rule:nonzero;"/>
        </g>
        <g transform="matrix(1,0,0,1,0.211795,0.567454)">
            <path d="M173.271,236.129C172.762,236.156 172.254,236.062 171.789,235.854C171.271,235.607 170.941,235.079 170.946,234.504C170.946,232.799 173.129,231.46 174.884,230.587C172.956,229.238 171.683,227.135 171.383,224.801C171.373,224.592 171.422,224.385 171.525,224.202L177.858,213.809C178.018,213.541 178.291,213.362 178.599,213.321C178.905,213.285 179.212,213.39 179.432,213.606L183.583,217.666C183.767,217.845 183.876,218.089 183.888,218.346C184.608,232.322 183.41,233.144 182.964,233.459C182.172,233.977 176.427,236.129 173.271,236.129ZM173.169,234.099C175.027,234.18 180.447,232.505 181.675,231.805C182.142,230.587 182.152,224.283 181.888,218.782L178.934,215.93L173.443,224.943C173.859,227.988 177.503,229.846 177.503,229.866C177.878,230.057 178.097,230.463 178.051,230.881C178.023,231.281 177.759,231.629 177.381,231.764C175.825,232.249 174.39,233.059 173.169,234.139L173.169,234.099Z" style="fill:rgb(9,63,104);fill-rule:nonzero;"/>
        </g>
        <g transform="matrix(1,0,0,1,0.211795,0.567454)">
            <path d="M238.525,213.616L233.866,218.234C233.866,218.234 233.866,231.52 235.175,232.15C236.485,232.779 247.355,234.413 247.092,232.535C246.828,230.658 241.57,229.633 241.57,229.633C241.57,229.633 246.838,227.339 246.513,223.543L238.525,213.616Z" style="fill:rgb(255,201,176);fill-rule:nonzero;"/>
        </g>
        <g transform="matrix(1,0,0,1,0.211795,0.567454)">
            <path d="M244.158,234.413C240.983,234.377 237.826,233.923 234.77,233.063C234.211,232.789 232.912,232.16 232.892,218.244C232.89,217.97 233,217.706 233.196,217.513L237.845,212.895C238.049,212.692 238.329,212.585 238.616,212.601C238.905,212.615 239.175,212.751 239.357,212.976L247.295,222.893C247.418,223.051 247.492,223.241 247.508,223.441C247.741,226.1 245.823,228.08 244.179,229.267C245.934,229.856 247.904,230.851 248.137,232.383C248.229,232.934 247.991,233.491 247.528,233.804C246.48,234.307 245.316,234.517 244.158,234.413ZM235.825,231.307C237.287,231.805 243.803,232.688 245.853,232.322C244.49,231.456 242.963,230.879 241.367,230.627C240.89,230.536 240.542,230.116 240.542,229.63C240.542,229.226 240.783,228.859 241.154,228.699C241.525,228.538 245.457,226.77 245.498,223.898L238.525,215.128L234.983,218.66C234.952,223.989 235.297,230.069 235.825,231.307Z" style="fill:rgb(9,63,104);fill-rule:nonzero;"/>
        </g>
        <g transform="matrix(1,0,0,1,0.211795,0.567454)">
            <path d="M233.582,243.173L176.498,243.173L183.076,224.73L233.582,224.73L233.582,243.173Z" style="fill:rgb(9,63,104);fill-rule:nonzero;"/>
        </g>
        <g transform="matrix(1,0,0,1,0.211795,0.567454)">
            <path d="M233.582,244.188L176.498,244.188C175.943,244.185 175.487,243.728 175.487,243.173C175.487,243.059 175.507,242.945 175.544,242.838L182.121,224.385C182.266,223.984 182.649,223.715 183.076,223.715L233.582,223.715C234.139,223.715 234.597,224.173 234.597,224.73L234.597,243.173C234.597,243.729 234.139,244.188 233.582,244.188ZM177.94,242.158L232.567,242.158L232.567,225.745L183.786,225.745L177.94,242.158Z" style="fill:rgb(9,63,104);fill-rule:nonzero;"/>
        </g>
        <g transform="matrix(1,0,0,1,0.211795,0.567454)">
            <path d="M245.397,118.064C245.397,118.064 242.149,119.201 239.875,117.414C237.601,115.628 234.029,110.309 229.644,109.457C225.259,108.604 217.626,114.684 211.293,113.943C204.959,113.202 202.858,110.289 193.764,109.385C184.669,108.482 178.66,114.978 175.422,114.978C172.185,114.978 170.713,114.816 170.713,114.816L170.713,127.148C170.713,127.148 174.773,127.321 176.884,130.071C178.995,132.822 183.857,138.678 188.729,140.14C193.601,141.602 205.05,135.278 208.339,136.405C211.627,137.531 217.789,141.48 224.457,141.287C231.126,141.094 238.728,128.782 241.651,128.64C243.111,128.539 244.576,128.539 246.036,128.64L245.397,118.064ZM203.051,127.747C202.208,130.741 197.641,132.061 192.901,130.711C188.161,129.361 184.913,125.828 185.796,122.834C186.679,119.84 191.206,118.52 195.946,119.87C200.686,121.22 203.903,124.753 203.051,127.747ZM223.899,130.67C219.108,132.02 214.541,130.67 213.698,127.706C212.856,124.742 216.043,121.19 220.803,119.83C225.563,118.47 230.161,119.83 231.004,122.794C231.846,125.757 228.69,129.361 223.899,130.67Z" style="fill:rgb(9,63,104);fill-rule:nonzero;stroke:rgb(9,63,104);stroke-width:2.03px;"/>
        </g>
        <g transform="matrix(1,0,0,1,0.211795,0.567454)">
            <path d="M177.909,106.31C177.909,106.31 173.778,120.672 179.655,127.087C179.655,127.087 186.293,106.097 191.206,100.697" style="fill:rgb(238,222,12);fill-rule:nonzero;"/>
        </g>
        <g transform="matrix(1,0,0,1,0.211795,0.567454)">
            <path d="M179.655,128.051C179.37,128.053 179.098,127.935 178.904,127.727C172.712,120.967 176.752,106.594 176.935,105.985C177.086,105.452 177.649,105.136 178.183,105.285C178.62,105.408 178.923,105.809 178.923,106.262C178.923,106.357 178.91,106.452 178.884,106.543C178.884,106.675 175.554,118.378 179.3,124.813C181.076,119.475 186.283,104.513 190.465,99.905C190.835,99.491 191.481,99.455 191.896,99.824C192.111,100.017 192.233,100.292 192.233,100.58C192.233,100.834 192.138,101.078 191.967,101.265C187.267,106.472 180.69,127.107 180.629,127.31C180.521,127.658 180.234,127.922 179.878,128.001L179.655,128.051Z" style="fill:rgb(9,63,104);fill-rule:nonzero;"/>
        </g>
        <g transform="matrix(1,0,0,1,0.211795,0.567454)">
            <path d="M208.379,185.977C208.379,185.977 201.863,189.296 201.274,196.127C201.325,196.138 207.273,195.275 208.379,185.977Z" style="fill:rgb(245,97,50);fill-rule:nonzero;"/>
        </g>
        <g transform="matrix(1,0,0,1,0.211795,0.567454)">
            <path d="M201.325,197.051C201.091,197.05 200.865,196.959 200.696,196.797C200.494,196.611 200.389,196.341 200.412,196.066C200.99,188.799 207.679,185.307 207.963,185.165C208.091,185.101 208.233,185.067 208.376,185.067C208.877,185.067 209.289,185.479 209.289,185.98C209.289,186.017 209.287,186.053 209.283,186.089C208.116,195.955 201.721,197 201.457,197.041L201.325,197.051ZM207.131,187.916C204.825,189.601 203.171,192.033 202.452,194.798C203.873,194.077 206.116,192.301 207.131,187.906L207.131,187.916Z" style="fill:rgb(9,63,104);fill-rule:nonzero;"/>
        </g>
        <g transform="matrix(1,0,0,1,0.211795,0.567454)">
            <path d="M208.379,185.977C208.379,185.977 208.562,193.367 215.819,195.539C215.819,195.539 217.89,189.784 208.379,185.977Z" style="fill:rgb(245,97,50);fill-rule:nonzero;"/>
        </g>
        <g transform="matrix(1,0,0,1,0.211795,0.567454)">
            <path d="M215.819,196.452C215.732,196.467 215.643,196.467 215.556,196.452C207.76,194.118 207.436,186.119 207.436,186.048C207.425,185.741 207.575,185.448 207.831,185.277C208.079,185.098 208.402,185.06 208.684,185.176C218.905,189.236 216.672,195.823 216.652,195.884C216.512,196.221 216.184,196.444 215.819,196.452ZM209.506,187.51C210.102,190.585 212.206,193.162 215.099,194.361C215.18,192.859 214.551,189.916 209.506,187.51Z" style="fill:rgb(9,63,104);fill-rule:nonzero;"/>
        </g>
    </g>
</svg>
